:SAMPLES-PER-SECOND 30
:FULLY-SPECIFIED
:DEGREES
444
root  -21.7116 39.0728 9.32361 -5.12695 68.9314 -0.53975
RightUpLeg  -17.9611 2.91879 -8.94932
RightLeg  22.5137 3.38853 1.37878
RightFoot  -2.95324 -0.719221 9.50917
RightToes  -2.21189e-009 0 -3.6325e-017
Spine  7.63663 -1.49451 -0.647052
Spine1  8.44695 -1.07097 -3.4463
HEad  -14.1499 15.0349 -12.7841
LeftShoulder1  -0.180499 3.98715 -31.1956
LeftArm  18.9181 -5.44394 -51.7656
LeftForeArm  12.2281 -20.4576 -5.41297
LeftHand  -0.0400077 3.31187 1.2905
RightShoulder  -0.288525 -4.41348 24.5202
RightArm  17.6861 -2.37639 45.9848
RightForeArm  2.62832 17.0306 5.48295
RightHand  -0.30746 3.77466 -4.15626
LeftUpLeg  6.41686 1.7157 -8.09887
LeftLeg  16.8031 -12.7734 -1.85291
LeftFoot  -15.5224 0.608971 14.0392
LeftToes  -4.03379e-008 1.61488e-010 -5.81581e-011
445
root  -20.896 38.9844 9.87543 -4.7872 70.9008 -0.408462
RightUpLeg  -17.6309 -1.13931 -7.96009
RightLeg  12.6586 4.83322 0.794879
RightFoot  -3.27001 -0.784266 10.7724
RightToes  -2.21189e-009 0 -3.6325e-017
Spine  7.46809 -1.32804 0.106757
Spine1  8.33779 -0.707767 -3.47213
HEad  -13.7895 14.3487 -12.5358
LeftShoulder1  -0.111633 3.80527 -30.9084
LeftArm  20.5941 -4.48482 -52.1594
LeftForeArm  11.3785 -22.6112 -4.51032
LeftHand  -0.0260338 3.17797 0.485154
RightShoulder  -0.278886 -4.37813 24.6655
RightArm  15.9298 -3.11486 45.9987
RightForeArm  5.27649 15.8434 5.527
RightHand  -0.212966 3.6914 -2.98624
LeftUpLeg  8.03687 0.713186 -7.86432
LeftLeg  16.5046 -13.6048 -1.81374
LeftFoot  -16.4326 0.736595 14.2615
LeftToes  -4.03379e-008 1.61488e-010 -5.81581e-011
446
root  -20.0422 38.8468 10.4129 -3.42792 73.2728 0.217392
RightUpLeg  -17.8827 -7.21133 -6.40756
RightLeg  4.24185 9.32058 -0.0189972
RightFoot  -3.91591 -0.822871 12.2299
RightToes  -2.21189e-009 0 -3.6325e-017
Spine  6.55413 -1.45554 0.396428
Spine1  8.67886 -0.847942 -2.93704
HEad  -13.4895 13.5839 -12.2405
LeftShoulder1  -0.146923 3.89647 -31.3032
LeftArm  20.8619 -4.10407 -51.8039
LeftForeArm  11.8216 -23.4184 -4.40635
LeftHand  -0.0224413 3.03802 0.325802
RightShoulder  -0.332284 -4.53896 24.9887
RightArm  15.355 -3.77476 45.7243
RightForeArm  5.97553 15.5512 5.49175
RightHand  -0.205678 2.80851 -3.1272
LeftUpLeg  8.95186 -1.17583 -7.86577
LeftLeg  16.554 -14.0248 -1.92524
LeftFoot  -17.5658 0.885404 14.2555
LeftToes  -4.03379e-008 1.61488e-010 -5.81581e-011
447
root  -19.0896 38.6344 10.9998 -2.7902 74.7079 1.21334
RightUpLeg  -17.6531 -7.52431 -6.15539
RightLeg  -0.298581 11.5155 -0.599901
RightFoot  -5.11275 -0.712174 12.3729
RightToes  -2.21189e-009 0 -3.6325e-017
Spine  6.89469 -1.31171 1.00582
Spine1  8.88577 -0.589832 -3.07645
HEad  -13.7856 12.4641 -12.29
LeftShoulder1  -0.169744 3.95599 -31.4148
LeftArm  21.8211 -4.05269 -51.1991
LeftForeArm  11.2259 -22.9159 -4.47677
LeftHand  -0.0352155 3.48778 1.01736
RightShoulder  -0.426279 -4.81459 25.6176
RightArm  14.9313 -4.71753 45.5015
RightForeArm  5.62156 15.6538 5.3998
RightHand  -0.244868 3.48206 -3.45324
LeftUpLeg  11.2726 -2.30272 -7.86851
LeftLeg  16.4546 -14.1538 -1.95999
LeftFoot  -18.7973 1.06229 14.4656
LeftToes  -4.03379e-008 1.61488e-010 -5.81581e-011
448
root  -18.1 38.3628 11.6287 -2.5497 75.9981 1.39255
RightUpLeg  -18.5333 -7.09876 -5.68717
RightLeg  0.559029 12.1674 -0.50961
RightFoot  -5.30297 -0.640832 11.4021
RightToes  -2.21189e-009 0 -3.6325e-017
Spine  7.08858 -1.38459 1.48656
Spine1  8.84398 -0.680066 -2.90772
HEad  -14.156 12.5273 -12.6208
LeftShoulder1  -0.243269 4.14808 -31.6236
LeftArm  21.1587 -3.74529 -50.1396
LeftForeArm  11.2664 -21.5558 -4.95056
LeftHand  -0.0286544 3.57687 0.701991
RightShoulder  -0.408372 -4.74846 25.8429
RightArm  14.9284 -5.3549 45.6477
RightForeArm  6.36473 15.6154 5.37794
RightHand  -0.248027 3.3944 -3.51815
LeftUpLeg  12.9162 -4.42424 -7.90782
LeftLeg  17.0436 -13.0315 -2.0254
LeftFoot  -20.2758 1.29648 14.937
LeftToes  -4.03379e-008 1.61488e-010 -5.81581e-011
449
root  -17.0376 38.1229 12.2585 -4.47483 77.4868 -0.65797
RightUpLeg  -19.62 -6.28322 -4.93661
RightLeg  5.2266 10.4333 0.230431
RightFoot  -2.39972 -0.797705 10.1597
RightToes  -2.21189e-009 0 -3.6325e-017
Spine  6.94392 -1.70567 2.31675
Spine1  9.29572 -1.16398 -2.22725
HEad  -14.2856 12.8552 -13.0243
LeftShoulder1  -0.257393 4.18005 -31.9247
LeftArm  16.8468 -3.48741 -48.9455
LeftForeArm  14.5713 -18.28 -6.6689
LeftHand  -0.0335146 4.03532 1.33306
RightShoulder  -0.364154 -4.62575 25.414
RightArm  15.7227 -6.06055 46.1664
RightForeArm  6.45071 15.9687 5.3955
RightHand  -0.216866 3.04311 -3.21251
LeftUpLeg  14.6426 -7.87013 -7.8042
LeftLeg  17.7801 -10.623 -2.1992
LeftFoot  -21.5904 1.45161 14.6528
LeftToes  -4.03379e-008 1.61488e-010 -5.81581e-011
450
root  -15.9079 37.9618 12.8946 -8.95759 78.9141 -5.47231
RightUpLeg  -20.721 -4.81034 -4.20546
RightLeg  10.0266 8.67125 0.897315
RightFoot  3.36913 -1.12652 8.81618
RightToes  -2.21189e-009 0 -3.6325e-017
Spine  7.04577 -2.06888 3.84411
Spine1  9.03979 -1.58638 -1.79237
HEad  -14.0418 12.7815 -13.3502
LeftShoulder1  -0.219928 4.0825 -31.8295
LeftArm  9.3627 -3.06736 -47.6865
LeftForeArm  20.8887 -13.4583 -9.09755
LeftHand  -0.0367488 4.43685 1.72434
RightShoulder  -0.425795 -4.79652 26.0203
RightArm  16.8094 -6.51489 45.4991
RightForeArm  6.34714 16.0148 5.52439
RightHand  -0.230742 3.48186 -3.26919
LeftUpLeg  16.2233 -11.8569 -7.51635
LeftLeg  18.7243 -7.96674 -2.31455
LeftFoot  -22.2241 1.41984 13.4365
LeftToes  -4.03379e-008 1.61488e-010 -5.81581e-011
451
root  -14.6869 37.7627 13.533 -15.8662 79.3744 -12.3766
RightUpLeg  -21.5893 -2.36059 -3.42732
RightLeg  15.8515 6.07721 1.58813
RightFoot  4.09845 -1.21825 9.15001
RightToes  -2.21189e-009 0 -3.6325e-017
Spine  7.56562 -2.38338 5.48035
Spine1  8.62206 -1.94973 -1.31992
HEad  -14.1127 13.5772 -13.9934
LeftShoulder1  -0.281362 4.23205 -32.5113
LeftArm  2.22728 -2.28952 -45.9972
LeftForeArm  26.5525 -8.93715 -10.1577
LeftHand  -0.0321151 5.04165 2.05182
RightShoulder  -0.379037 -4.6587 25.822
RightArm  16.8898 -6.64466 45.4756
RightForeArm  7.98793 15.607 5.60598
RightHand  -0.161839 3.91997 -2.28158
LeftUpLeg  17.3446 -12.7211 -6.0419
LeftLeg  21.4456 -7.86147 -3.10048
LeftFoot  -22.3933 1.32121 12.2163
LeftToes  -4.03379e-008 1.61488e-010 -5.81581e-011
